<svg xmlns="http://www.w3.org/2000/svg" viewBox="0 0 63.4 63.26"><defs><style>.cls-1{fill:#ec2029;}</style></defs><title>Asset 1</title><g id="Layer_2" data-name="Layer 2"><g id="Layer_1-2" data-name="Layer 1"><path class="cls-1" d="M63.4,26.24c-.11-3.79-4.5-6.61-10.74-7.06L31.35,0,0,28.56l3.33,3.66,2.51-2.29V54.1a9.48,9.48,0,0,0,1.61,5.75c1.64,2.26,4.34,3.41,8,3.41H30.16V63.2h.58c4.3,0,7.89-1.07,10.12-2.82,2.22,1.71,5.78,2.75,10,2.75,7.25,0,12.52-3.06,12.52-7.27v-.06h0V26.24ZM38.27,56c-.25.72-3,2.28-7.53,2.28s-7.33-1.6-7.57-2.32V52a19.85,19.85,0,0,0,7.57,1.36A19.86,19.86,0,0,0,38.26,52v4Zm0-9.92h-.05v.09c-.44.76-3.18,2.23-7.52,2.23-4.53,0-7.33-1.61-7.57-2.32.24-.72,3-2.32,7.57-2.32s7.32,1.6,7.57,2.32ZM18.2,56a4.86,4.86,0,0,0,.62,2.36H15.48c-3.92,0-4.69-1.54-4.69-4.21V25.42L31.37,6.68l14.44,13c-4.52,1.06-7.46,3.56-7.46,6.71h0l0,13.78a19.72,19.72,0,0,0-7.59-1.37c-7.26,0-12.53,3.06-12.53,7.27h0V56ZM50.88,38.58c-4.54,0-7.33-1.6-7.58-2.31v-4a19.9,19.9,0,0,0,7.58,1.36,19.86,19.86,0,0,0,7.52-1.34v4C58,37.11,55.22,38.58,50.88,38.58Zm7.52,3.61v4c-.44.75-3.18,2.22-7.52,2.22-4.54,0-7.33-1.6-7.58-2.32v-3.9a19.91,19.91,0,0,0,7.58,1.35A19.67,19.67,0,0,0,58.4,42.19Zm.05,13.68c-.25.72-3,2.32-7.57,2.32s-7.33-1.6-7.58-2.32V52a19.9,19.9,0,0,0,7.58,1.36A19.86,19.86,0,0,0,58.4,52v3.58h.05ZM58.4,26.38v.1c-.44.75-3.18,2.22-7.52,2.22-4.54,0-7.33-1.6-7.58-2.32.25-.72,3-2.32,7.58-2.32s7.32,1.6,7.57,2.32Z"/></g></g></svg>