<svg xmlns="http://www.w3.org/2000/svg" viewBox="0 0 63.47 63.14"><defs><style>.cls-1{fill:#ec2029}</style></defs><title>Asset 1</title><g id="Layer_2" data-name="Layer 2"><g id="Layer_1-2" data-name="Layer 1"><path d="M63.47,46.36,44.23,28.77,25.11,46.3,28.46,50l1.23-1.13v8A6.26,6.26,0,0,0,35.94,63h16.7a6.25,6.25,0,0,0,6.25-6.24V48.88L60.13,50ZM53.94,56.79a1.3,1.3,0,0,1-1.3,1.3H35.94a1.3,1.3,0,0,1-1.3-1.3V44.28l9.6-8.8,9.7,8.88Z" class="cls-1"/><rect width="7.42" height="7.42" x="40.7" y="46.02" class="cls-1"/><path d="M14.94,25.42A10.49,10.49,0,1,0,25.42,14.94,10.49,10.49,0,0,0,14.94,25.42Zm16,0a5.54,5.54,0,1,1-5.54-5.53A5.54,5.54,0,0,1,31,25.42Z" class="cls-1"/><path d="M5,25.42a20.48,20.48,0,0,1,40.86-1.94l5,4.48V25.24A25.43,25.43,0,0,0,0,25.42c0,2.49.59,7.72,4.5,14.86C8.6,47.74,15.09,55,23.82,61.93l1.55,1.21V56.81C6,40.84,5,27.91,5,25.42Z" class="cls-1"/></g></g></svg>