<svg xmlns="http://www.w3.org/2000/svg" viewBox="0 0 66.24 59.63"><defs><style>.cls-1{fill:#ec2029;}</style></defs><title>Asset 3</title><g id="Layer_2" data-name="Layer 2"><g id="Layer_1-2" data-name="Layer 1"><rect class="cls-1" x="34.52" y="17.25" width="7.42" height="7.42"/><path class="cls-1" d="M24.37,52.53c-1.23-1-11.56-11-16.24-15.73l-.07-.08C5.24,34.1,4.94,32.62,5,32.1c0-.18,0-.65.74-1.31a2.28,2.28,0,0,1,3.45.15c1.47,1.47,9.75,9.13,11.66,10.9,1.5,2,4.49,3.69,10.31,4s14.31,1.22,14.4,1.22L46,42.14c-.35,0-8.67-.94-14.67-1.25-2.62-.14-7-.75-7-3.35,0-1.51,1.79-2.16,2.7-2.16h12.6c7.54,0,13.44,1.43,17.54,4.27l.18.12c1.37.94,6,3.93,6.17,4l2.7-4.15s-4.76-3.08-6.08-4l-.16-.1a24.64,24.64,0,0,0-8.55-3.81A6.22,6.22,0,0,0,52.7,28V20.11l1.24,1.13,3.34-3.65L38.05,0,18.93,17.53l3.34,3.65,1.24-1.13v8A6.18,6.18,0,0,0,24.24,31a7.53,7.53,0,0,0-4.11,3.52c-3-2.79-6.62-6.15-7.49-7A7.14,7.14,0,0,0,2.4,27.1,6.61,6.61,0,0,0,0,32.05c0,2.61,1.49,5.31,4.65,8.26,4.26,4.32,15.08,14.89,16.7,16.14s4.13,3.18,10,3.18H65.57v-5H31.36C27.16,54.68,25.62,53.49,24.37,52.53ZM38.05,6.71l9.7,8.88V28a1.3,1.3,0,0,1-1.29,1.3H29.75a1.31,1.31,0,0,1-1.3-1.3V15.51Z"/></g></g></svg>