<svg xmlns="http://www.w3.org/2000/svg" viewBox="0 0 64.5 64.28"><defs><style>.cls-1{fill:#000000;}</style></defs><title>Asset 1</title><g id="Layer_2" data-name="Layer 2"><g id="Layer_1-2" data-name="Layer 1"><path class="cls-1" d="M14.7,54H30.07V38.61H14.7Zm4.9-10.46h5.57v5.57H19.6Z"/><path class="cls-1" d="M64.07,29l-19.23-28a2.45,2.45,0,0,0-4-.06L35.14,8.81h-17a2.43,2.43,0,0,0-1.89.9L.55,28.87a2.45,2.45,0,0,0,1.9,4H5.06V56.68a7.61,7.61,0,0,0,7.6,7.6H52.14a7.61,7.61,0,0,0,7.6-7.6V32.87h2.31a2.44,2.44,0,0,0,2-3.83ZM42.76,6.68,57.4,28h-8a7.25,7.25,0,0,0,.5-2.64,7.38,7.38,0,1,0-14.76,0,7.25,7.25,0,0,0,.5,2.64H27.2ZM40.08,25.34a2.48,2.48,0,1,1,2.48,2.48A2.49,2.49,0,0,1,40.08,25.34ZM19.32,13.71H31.57L21.14,28H7.62Zm25.8,45.67H39.87V43.51h5.25Zm9.72-2.7a2.7,2.7,0,0,1-2.7,2.7H50V38.61H35V59.38H12.66A2.71,2.71,0,0,1,10,56.68V32.87H54.84Z"/></g></g></svg>