<svg xmlns="http://www.w3.org/2000/svg" viewBox="0 0 62.02 62.15"><defs><style>.cls-1{fill:#000000;}</style></defs><title>Asset 1</title><g id="Layer_2" data-name="Layer 2"><g id="Layer_1-2" data-name="Layer 1"><path class="cls-1" d="M37.45,25.9c0-4-3.31-5.53-4.17-6s-2.52-1.46-3-1.76A1,1,0,0,1,31,16.49a1,1,0,0,1,1.11,1.05h4.72v-.36a5.67,5.67,0,0,0-3.37-4.57V9.06H28.58v3.65c-2.63,1.08-3,3.73-3,5.09A6,6,0,0,0,29.1,23c2.43,1.28,3.53,1.81,3.53,2.61A1.29,1.29,0,0,1,31.22,27a1.74,1.74,0,0,1-1.77-1.64H24.59s.33,4.7,4,5.66v3h4.89V31C34.68,30.48,37.45,29.06,37.45,25.9Z"/><path class="cls-1" d="M54.88,6.16a7.33,7.33,0,0,0-6.32,3.31,21,21,0,0,0-35.1,0A7.33,7.33,0,0,0,7.14,6.16C2.94,6.16,0,9.5,0,14.28V40.06c0,7.78,2,10.87,3.68,12.68.7.74,5.9,5.76,9.69,9.41h7.06c-5-4.81-12.46-12-13.19-12.77S4.89,46.9,4.89,40.06V14.28c0-1,.22-3.23,2.25-3.23a2.28,2.28,0,0,1,2.53,2.3v20.1H10a6,6,0,0,0-.38,1.46c-.39,3.09,1.56,5.92,2.42,7L22.69,55.19l3.82-3.07L15.87,38.84a5.37,5.37,0,0,1-1.39-3.31,1.33,1.33,0,0,1,.63-.93c1.73-1.3,3.76.84,4,1.07l.12.13L30.93,47.29c4.45,4.82,5.45,11.77,5.67,14.86h4.91a35.56,35.56,0,0,0-1.39-7.95c2.27-2.84,8.77-10.94,9.85-12.3.86-1.07,2.81-3.9,2.42-7A6,6,0,0,0,52,33.45h.34V13.35a2.28,2.28,0,0,1,2.53-2.3c2,0,2.25,2.26,2.25,3.23V40.06c0,6.84-1.71,8.64-2.35,9.32s-8.19,8-13.19,12.77h7.06c3.79-3.65,9-8.67,9.69-9.41C60.05,50.93,62,47.84,62,40.06V14.28C62,9.5,59.08,6.16,54.88,6.16ZM27.05,36.65l-4.36-4.29a9.79,9.79,0,0,0-5.49-3A16,16,0,0,1,14.89,21a16.12,16.12,0,1,1,32.24,0,16,16,0,0,1-2.31,8.3,9.83,9.83,0,0,0-5.49,3L35,36.64a15.68,15.68,0,0,1-4,.5A16.15,16.15,0,0,1,27.05,36.65Zm19.1,2.19C45.28,39.94,40.88,45.42,38,49a23.12,23.12,0,0,0-3.51-5l8.31-8.15.12-.13c.21-.23,2.24-2.37,4-1.07a1.33,1.33,0,0,1,.63.93A5.37,5.37,0,0,1,46.15,38.84Z"/></g></g></svg>