<svg xmlns="http://www.w3.org/2000/svg" viewBox="0 0 63.63 63.84"><defs><style>.cls-1{fill:#000}</style></defs><title>Asset 1</title><g id="Layer_2" data-name="Layer 2"><g id="Layer_1-2" data-name="Layer 1"><path d="M29.78,42.68c2.58,1.38,3.75,2,3.75,2.82A1.39,1.39,0,0,1,32,47a1.86,1.86,0,0,1-1.88-1.77H25s.34,5.09,4.22,6.12v3.28h5.19v-3.3c1.28-.51,4.22-2,4.22-5.47a7.13,7.13,0,0,0-4.43-6.48c-.91-.51-2.67-1.59-3.13-1.91a1,1,0,0,1,.74-1.79A1.07,1.07,0,0,1,33,36.82h5v-.39s-.33-3.71-3.57-4.95V27.65H29.23v3.94c-2.79,1.17-3.17,4-3.17,5.51A6.59,6.59,0,0,0,29.78,42.68Z" class="cls-1"/><path d="M63.63,24.12V21.34a3.12,3.12,0,0,0-1.48-2.65L31.81,0,1.86,18.65A3.93,3.93,0,0,0,0,22v2.13H4.44V59H0v4.89H63.63V59H59.2V24.12ZM31.82,5.76,53.68,19.22H10.19ZM44.25,24.12V59H19.39V24.12Zm-34.91,0H14.5V59H9.34ZM54.31,59H49.15V24.12h5.16Z" class="cls-1"/></g></g></svg>