<svg xmlns="http://www.w3.org/2000/svg" viewBox="0 0 62.84 63.67"><defs><style>.cls-1{fill:#000000;}</style></defs><title>Asset 1</title><g id="Layer_2" data-name="Layer 2"><g id="Layer_1-2" data-name="Layer 1"><path class="cls-1" d="M54.21,0H8.63A8.64,8.64,0,0,0,0,8.63V39.78a8.64,8.64,0,0,0,8.63,8.63H29.36V58.77H19.92v4.9h23.9v-4.9H34.25V48.41h20a8.64,8.64,0,0,0,8.63-8.63V8.63A8.64,8.64,0,0,0,54.21,0Zm3.73,8.63V15H49.07V4.89h5.14A3.74,3.74,0,0,1,57.94,8.63ZM19.4,29.26V4.89h8.44L23.51,16h9L30.2,20.69l.55,4.52,3.65-2,5.93-12.11H30.67l2.42-6.24H44.18V29.26Zm-4.89,0H4.89V19.89h9.62Zm34.56-9.37h8.87v9.37H49.07ZM8.63,4.89h5.88V15H4.89V8.63A3.75,3.75,0,0,1,8.63,4.89ZM4.89,39.78V34.15h9.62v9.37H8.63A3.75,3.75,0,0,1,4.89,39.78ZM19.4,43.52V34.15h10v9.37Zm14.85-9.37h9.93v9.37H34.25Zm20,9.37H49.07V34.15h8.87v5.63A3.74,3.74,0,0,1,54.21,43.52Z"/></g></g></svg>